<svg width="236" height="66" viewBox="0 0 236 66" fill="none" xmlns="http://www.w3.org/2000/svg">
<g filter="url(#filter0_d_2_132)">
<path d="M12.5205 57.8066C10.5426 57.8066 8.7666 57.2819 7.19238 56.2324C5.61816 55.2233 4.28613 53.8307 3.19629 52.0547C2.10645 50.2786 1.29915 48.2201 0.774414 45.8789C0.290039 43.5378 0.108398 41.0553 0.229492 38.4316C0.390951 35.6465 0.814779 32.7806 1.50098 29.834C2.18717 26.847 3.11556 23.9408 4.28613 21.1152C5.45671 18.2897 6.80892 15.6055 8.34277 13.0625C9.91699 10.5195 11.6325 8.29948 13.4893 6.40234C15.3864 4.50521 17.4046 3.01172 19.5439 1.92188C21.6833 0.791667 23.9235 0.226562 26.2646 0.226562C27.7985 0.226562 29.0902 0.610026 30.1396 1.37695C31.1891 2.14388 31.9964 3.15299 32.5615 4.4043C33.167 5.61523 33.5505 6.98763 33.7119 8.52148C33.8734 10.0553 33.8532 11.5892 33.6514 13.123C33.4899 14.6165 33.1468 16.0697 32.6221 17.4824C32.1377 18.8548 31.5322 19.985 30.8057 20.873C29.8773 22.0436 29.0296 22.6693 28.2627 22.75C27.5361 22.7904 26.8298 22.5684 26.1436 22.084C25.861 21.8418 25.5785 21.5592 25.2959 21.2363C25.0133 20.9538 24.7106 20.6107 24.3877 20.207C24.0648 19.763 23.7217 19.2181 23.3584 18.5723C24.1253 18.2897 24.8317 17.8255 25.4775 17.1797C26.1234 16.4935 26.6683 15.7266 27.1123 14.8789C27.5967 14.0312 27.96 13.1432 28.2021 12.2148C28.4847 11.2461 28.6462 10.2975 28.6865 9.36914C28.7269 8.64258 28.7067 7.9362 28.626 7.25C28.5452 6.52344 28.3838 5.89779 28.1416 5.37305C27.8994 4.80794 27.5563 4.36393 27.1123 4.04102C26.7087 3.67773 26.1839 3.49609 25.5381 3.49609C23.9235 3.49609 22.3493 4.12174 20.8154 5.37305C19.2816 6.58398 17.8285 8.21875 16.4561 10.2773C15.124 12.2956 13.8727 14.6165 12.7021 17.2402C11.5719 19.8639 10.583 22.5684 9.73535 25.3535C8.8877 28.1387 8.2015 30.8835 7.67676 33.5879C7.15202 36.2923 6.8291 38.7546 6.70801 40.9746C6.54655 43.7598 6.64746 46.0202 7.01074 47.7559C7.37402 49.4915 7.8584 50.8438 8.46387 51.8125C9.1097 52.8216 9.7959 53.4876 10.5225 53.8105C11.249 54.1738 11.915 54.3555 12.5205 54.3555C13.6507 54.3555 14.9222 53.8307 16.335 52.7812C17.7477 51.7318 19.0999 50.2988 20.3916 48.4824C21.6833 46.7064 22.8337 44.6478 23.8428 42.3066C24.8923 39.9655 25.639 37.5033 26.083 34.9199C25.0739 34.9199 24.0446 34.9401 22.9951 34.9805C21.986 34.9805 21.0173 35.0007 20.0889 35.041C19.1605 35.0814 18.333 35.1419 17.6064 35.2227C16.8799 35.263 16.3148 35.3236 15.9111 35.4043C15.6286 35.2832 15.4268 35.1419 15.3057 34.9805C15.2249 34.819 15.1442 34.6374 15.0635 34.4355C14.9827 34.2741 14.9424 34.0723 14.9424 33.8301C14.9424 33.5879 14.9827 33.3659 15.0635 33.1641C15.1442 32.9622 15.2451 32.7604 15.3662 32.5586C15.4873 32.3164 15.6488 32.0742 15.8506 31.832C17.1423 31.5898 18.4137 31.388 19.665 31.2266C20.9163 31.0651 22.208 30.944 23.54 30.8633C24.9124 30.7422 26.3656 30.6615 27.8994 30.6211C29.4736 30.5404 31.2295 30.4798 33.167 30.4395C33.9743 30.3991 34.4587 30.5 34.6201 30.7422C34.8219 30.9844 34.7614 31.5898 34.4385 32.5586C34.1963 33.3255 33.8734 33.9512 33.4697 34.4355C33.1064 34.9199 32.4808 35.1217 31.5928 35.041C31.3102 35.041 31.0882 35.0208 30.9268 34.9805C30.5635 37.362 29.7965 39.8848 28.626 42.5488C27.4554 45.2129 26.0225 47.6751 24.3271 49.9355C22.6318 52.196 20.7549 54.0729 18.6963 55.5664C16.6781 57.0599 14.6195 57.8066 12.5205 57.8066ZM68.2842 33.9512C67.7191 34.7585 66.9925 35.7676 66.1045 36.9785C65.2165 38.1491 64.2881 39.3398 63.3193 40.5508C62.391 41.7214 61.4626 42.8112 60.5342 43.8203C59.6462 44.7891 58.8994 45.4753 58.2939 45.8789C57.8903 46.1211 57.4261 46.3229 56.9014 46.4844C56.3766 46.6458 55.8317 46.7467 55.2666 46.7871C54.7419 46.8275 54.2373 46.7871 53.7529 46.666C53.2686 46.5853 52.8447 46.4238 52.4814 46.1816C52.1182 45.8991 51.8154 45.4954 51.5732 44.9707C51.3714 44.5267 51.1696 43.9414 50.9678 43.2148C50.8063 42.4883 50.7458 41.5801 50.7861 40.4902C49.8174 42.1048 48.7477 43.3561 47.5771 44.2441C46.4066 45.0918 45.2965 45.7174 44.2471 46.1211C43.0361 46.5651 41.8252 46.8275 40.6143 46.9082C40.0492 46.9082 39.4437 46.7064 38.7979 46.3027C38.152 45.9395 37.6071 45.3542 37.1631 44.5469C36.7191 43.6992 36.4365 42.6296 36.3154 41.3379C36.1943 40.0059 36.3558 38.4316 36.7998 36.6152C37.3649 34.153 38.2529 31.9128 39.4639 29.8945C40.7152 27.8763 42.0674 26.1608 43.5205 24.748C44.9736 23.2949 46.4066 22.2051 47.8193 21.4785C49.2321 20.752 50.4027 20.429 51.3311 20.5098C52.4209 20.7116 53.3089 21.0345 53.9951 21.4785C54.5602 21.8822 54.9235 22.4876 55.085 23.2949C55.2868 24.0618 54.9639 25.0911 54.1162 26.3828C54.6813 26.2617 55.1455 26.181 55.5088 26.1406C55.9124 26.1003 56.2152 26.0801 56.417 26.0801C56.6592 26.0801 56.8206 26.1003 56.9014 26.1406C56.9417 26.2214 56.9619 26.403 56.9619 26.6855C56.9619 26.9277 56.9014 27.3919 56.7803 28.0781C56.6592 28.7643 56.4775 29.6927 56.2354 30.8633C55.9932 32.0339 55.6702 33.5475 55.2666 35.4043C55.1859 35.7676 55.1051 36.1107 55.0244 36.4336C54.984 36.7161 54.9235 37.0189 54.8428 37.3418C54.8024 37.6243 54.7419 37.9674 54.6611 38.3711C54.5804 38.7747 54.4795 39.2793 54.3584 39.8848C54.318 40.248 54.2979 40.6517 54.2979 41.0957C54.3382 41.4993 54.4189 41.8828 54.54 42.2461C54.6611 42.6094 54.8428 42.9121 55.085 43.1543C55.3675 43.3561 55.751 43.457 56.2354 43.457C56.639 43.457 57.1637 43.2148 57.8096 42.7305C58.4554 42.2057 59.1416 41.5599 59.8682 40.793C60.5947 39.9857 61.3415 39.1178 62.1084 38.1895C62.9157 37.2207 63.6624 36.2923 64.3486 35.4043C65.0348 34.5163 65.6403 33.7292 66.165 33.043C66.7301 32.3568 67.1338 31.8522 67.376 31.5293C67.6989 31.166 68.0218 30.9642 68.3447 30.9238C68.6676 30.8431 68.9098 30.9238 69.0713 31.166C69.2327 31.4082 69.2529 31.7715 69.1318 32.2559C69.0511 32.7402 68.7686 33.3053 68.2842 33.9512ZM50.5439 36.6152C50.7458 35.8079 50.988 34.8594 51.2705 33.7695C51.5531 32.6797 51.7952 31.6302 51.9971 30.6211C52.1989 29.612 52.3402 28.7845 52.4209 28.1387C52.542 27.4525 52.5218 27.1296 52.3604 27.1699C52.1585 27.2103 51.9365 27.2708 51.6943 27.3516C51.4925 27.4323 51.2301 27.4928 50.9072 27.5332C50.5843 27.5736 50.2614 27.6341 49.9385 27.7148C50.2614 27.069 50.443 26.5443 50.4834 26.1406C50.5641 25.6966 50.5843 25.3535 50.5439 25.1113C50.5036 24.8288 50.4229 24.6068 50.3018 24.4453C49.8577 24.082 49.0706 24.3848 47.9404 25.3535C46.8506 26.2819 45.5791 28.0176 44.126 30.5605C43.5205 31.61 43.0361 32.7402 42.6729 33.9512C42.3096 35.1217 42.0472 36.2318 41.8857 37.2812C41.7646 38.3307 41.7445 39.2591 41.8252 40.0664C41.9059 40.8333 42.0674 41.3379 42.3096 41.5801C42.7536 42.0241 43.2581 42.2461 43.8232 42.2461C44.3883 42.2057 44.9535 42.0443 45.5186 41.7617C46.124 41.4388 46.7093 41.0352 47.2744 40.5508C47.8799 40.0664 48.4046 39.5618 48.8486 39.0371C49.333 38.5124 49.7165 38.028 49.999 37.584C50.3219 37.14 50.5036 36.8171 50.5439 36.6152ZM86.5693 30.6816C86.7308 30.4395 86.9326 30.2982 87.1748 30.2578C87.4574 30.1771 87.6794 30.1973 87.8408 30.3184C88.0023 30.4395 88.083 30.6413 88.083 30.9238C88.1234 31.2064 88.0225 31.5898 87.7803 32.0742C86.973 33.6081 85.9033 35.263 84.5713 37.0391C83.2796 38.8151 81.9072 40.4902 80.4541 42.0645C79.001 43.5983 77.5882 44.8698 76.2158 45.8789C74.8434 46.888 73.693 47.3926 72.7646 47.3926C71.4326 47.3926 70.3226 47.1302 69.4346 46.6055C68.5465 46.0807 67.8402 45.4349 67.3154 44.668C66.8311 43.901 66.488 43.0736 66.2861 42.1855C66.0843 41.2572 66.0238 40.4095 66.1045 39.6426C66.1449 38.9967 66.2861 37.8464 66.5283 36.1914C66.7705 34.4961 67.0934 32.5586 67.4971 30.3789C67.9007 28.1589 68.3447 25.7975 68.8291 23.2949C69.3538 20.752 69.8988 18.3099 70.4639 15.9688C69.7777 16.0495 69.0915 16.1302 68.4053 16.2109C67.7191 16.2917 67.0934 16.332 66.5283 16.332C65.2367 16.332 64.0257 16.1908 62.8955 15.9082C61.7249 15.5853 60.8571 15.2826 60.292 15C59.9691 14.8385 59.8278 14.6165 59.8682 14.334C59.9085 14.0111 60.0296 13.7083 60.2314 13.4258C60.4333 13.1029 60.6956 12.8405 61.0186 12.6387C61.3011 12.3965 61.5635 12.2754 61.8057 12.2754C62.5726 12.3561 63.4001 12.4368 64.2881 12.5176C65.1761 12.5579 66.1449 12.5579 67.1943 12.5176C67.9613 12.4772 68.6878 12.4167 69.374 12.3359C70.1006 12.2552 70.807 12.1543 71.4932 12.0332C72.0179 10.0957 72.5225 8.42057 73.0068 7.00781C73.5316 5.55469 73.9958 4.54557 74.3994 3.98047C74.5205 3.77865 74.7829 3.61719 75.1865 3.49609C75.6305 3.33464 76.0947 3.23372 76.5791 3.19336C77.0635 3.11263 77.5277 3.11263 77.9717 3.19336C78.4157 3.23372 78.7386 3.375 78.9404 3.61719C79.1423 3.9401 79.223 4.76758 79.1826 6.09961C79.1423 7.43164 78.9202 9.12695 78.5166 11.1855C80.2119 11.1855 81.7054 11.2865 82.9971 11.4883C84.3291 11.6497 85.4593 11.8516 86.3877 12.0938C87.3161 12.2956 88.0628 12.5176 88.6279 12.7598C89.193 12.9616 89.6169 13.1029 89.8994 13.1836C90.182 13.2643 90.3232 13.4661 90.3232 13.7891C90.3636 14.112 90.3031 14.4551 90.1416 14.8184C90.0205 15.1413 89.7985 15.4238 89.4756 15.666C89.1527 15.9082 88.7894 15.9889 88.3857 15.9082C87.9821 15.8678 87.5179 15.7871 86.9932 15.666C86.5088 15.5449 85.9033 15.444 85.1768 15.3633C84.4906 15.2826 83.6631 15.2018 82.6943 15.1211C81.7256 15.0404 80.5954 15 79.3037 15C79.0615 15 78.779 15.0202 78.4561 15.0605C78.1735 15.0605 77.8708 15.0605 77.5479 15.0605C77.3864 15.7064 77.2249 16.3522 77.0635 16.998C76.9424 17.6035 76.7607 18.2493 76.5186 18.9355C75.9938 20.5501 75.3883 22.306 74.7021 24.2031C74.0967 25.8581 73.3701 27.7552 72.5225 29.8945C71.6748 32.0339 70.7262 34.3145 69.6768 36.7363C69.4346 38.472 69.4548 39.804 69.7373 40.7324C70.0602 41.6204 70.4437 42.2663 70.8877 42.6699C71.4124 43.1139 72.0583 43.3561 72.8252 43.3965C73.4307 43.4772 74.1572 43.2754 75.0049 42.791C75.8929 42.2663 76.8011 41.5801 77.7295 40.7324C78.6579 39.8848 79.5863 38.9564 80.5146 37.9473C81.4834 36.9382 82.3714 35.9492 83.1787 34.9805C83.986 34.0117 84.6924 33.1439 85.2979 32.377C85.9033 31.5697 86.3271 31.0046 86.5693 30.6816ZM110.364 33.4062C109.153 35.1823 107.781 36.918 106.247 38.6133C104.713 40.2682 103.078 41.7617 101.343 43.0938C99.6475 44.3854 97.8916 45.4349 96.0752 46.2422C94.2992 47.0495 92.5635 47.4531 90.8682 47.4531C89.9801 47.4531 89.0114 47.2311 87.9619 46.7871C86.9528 46.3835 86.0244 45.7376 85.1768 44.8496C84.3291 43.9616 83.6429 42.8112 83.1182 41.3984C82.6338 39.9857 82.4925 38.2702 82.6943 36.252C82.8558 34.597 83.3604 32.8613 84.208 31.0449C85.096 29.1882 86.1657 27.4928 87.417 25.959C88.7087 24.4251 90.1416 23.1536 91.7158 22.1445C93.3304 21.1354 94.945 20.6309 96.5596 20.6309C98.0934 20.6309 99.2035 21.0143 99.8896 21.7812C100.576 22.5482 100.879 23.4967 100.798 24.627C100.677 25.8783 100.313 27.0286 99.708 28.0781C99.1429 29.1276 98.4567 30.0762 97.6494 30.9238C96.8421 31.7715 95.9743 32.5384 95.0459 33.2246C94.1579 33.9108 93.3102 34.5365 92.5029 35.1016C91.6149 35.707 90.7673 36.2923 89.96 36.8574C89.1527 37.3822 88.4463 37.8665 87.8408 38.3105C87.8812 39.3197 88.0628 40.1673 88.3857 40.8535C88.7087 41.5397 89.1123 42.1048 89.5967 42.5488C90.0811 42.9525 90.626 43.2552 91.2314 43.457C91.8773 43.6185 92.5231 43.6992 93.1689 43.6992C94.5413 43.6992 95.9743 43.2754 97.4678 42.4277C98.9613 41.5397 100.414 40.4902 101.827 39.2793C103.28 38.028 104.612 36.7363 105.823 35.4043C107.075 34.0723 108.104 32.9219 108.911 31.9531C109.194 31.6302 109.476 31.4486 109.759 31.4082C110.082 31.3275 110.324 31.3678 110.485 31.5293C110.687 31.6504 110.788 31.8926 110.788 32.2559C110.788 32.5788 110.647 32.9622 110.364 33.4062ZM94.8643 24.082C94.3799 24.082 93.7946 24.3242 93.1084 24.8086C92.4626 25.293 91.8167 25.9993 91.1709 26.9277C90.5251 27.8158 89.9196 28.9258 89.3545 30.2578C88.7894 31.5495 88.3656 33.043 88.083 34.7383C88.5674 34.375 89.0921 34.0117 89.6572 33.6484C90.2223 33.2448 90.7874 32.821 91.3525 32.377C93.0882 31.0449 94.2992 29.8743 94.9854 28.8652C95.6715 27.8561 96.055 26.9883 96.1357 26.2617C96.2165 25.4948 96.1357 24.9499 95.8936 24.627C95.6514 24.2637 95.3083 24.082 94.8643 24.082ZM129.194 24.6875C130.042 22.9922 130.89 21.3171 131.737 19.6621C132.585 17.9668 133.352 16.3926 134.038 14.9395C134.724 13.4863 135.31 12.1947 135.794 11.0645C136.278 9.89388 136.561 8.96549 136.642 8.2793C136.722 7.55273 136.662 6.92708 136.46 6.40234C136.258 5.8776 135.915 5.45378 135.431 5.13086C134.987 4.80794 134.442 4.56576 133.796 4.4043C133.19 4.20247 132.504 4.08138 131.737 4.04102C130.405 3.96029 128.811 4.00065 126.954 4.16211C125.138 4.2832 123.382 4.54557 121.687 4.94922C119.991 5.3125 118.518 5.83724 117.267 6.52344C116.056 7.20964 115.41 8.05729 115.329 9.06641C115.289 9.63151 115.39 10.1361 115.632 10.5801C115.834 10.9434 116.197 11.2865 116.722 11.6094C117.287 11.9323 118.114 12.0534 119.204 11.9727C119.406 11.9727 119.648 11.9525 119.931 11.9121C120.173 11.8717 120.476 11.8314 120.839 11.791C121.202 11.7103 121.626 11.6094 122.11 11.4883L119.144 15.4844C118.578 16.2917 117.973 16.776 117.327 16.9375C116.681 17.099 116.096 17.1393 115.571 17.0586C115.289 17.0182 114.724 16.877 113.876 16.6348C113.069 16.3926 112.241 16.0293 111.394 15.5449C110.586 15.0605 109.88 14.4147 109.274 13.6074C108.669 12.7598 108.427 11.7103 108.548 10.459C108.709 9.00586 109.335 7.67383 110.425 6.46289C111.515 5.21159 113.028 4.14193 114.966 3.25391C116.944 2.36589 119.285 1.67969 121.989 1.19531C124.734 0.710938 127.822 0.46875 131.253 0.46875C133.836 0.46875 135.895 0.751302 137.429 1.31641C138.963 1.84115 140.073 2.54753 140.759 3.43555C141.485 4.2832 141.828 5.29232 141.788 6.46289C141.788 7.5931 141.546 8.76367 141.062 9.97461C140.819 10.5397 140.456 11.3268 139.972 12.3359C139.528 13.3047 138.983 14.4551 138.337 15.7871C137.691 17.0788 137.005 18.5117 136.278 20.0859C135.552 21.6602 134.825 23.2949 134.099 24.9902C135.188 25.071 136.177 25.1719 137.065 25.293C137.994 25.4141 138.72 25.515 139.245 25.5957C139.851 25.7572 140.052 26.0195 139.851 26.3828C139.487 27.1094 139.124 27.6543 138.761 28.0176C138.438 28.3809 138.075 28.6432 137.671 28.8047C137.267 28.9258 136.823 28.9863 136.339 28.9863C135.854 28.946 135.31 28.9056 134.704 28.8652C134.341 28.8652 133.978 28.8652 133.614 28.8652C133.251 28.8249 132.868 28.7845 132.464 28.7441C131.697 30.5605 130.95 32.3568 130.224 34.1328C129.537 35.9089 128.892 37.6042 128.286 39.2188C127.721 40.793 127.216 42.2461 126.772 43.5781C126.328 44.9102 126.026 46.0202 125.864 46.9082C125.622 48.1595 125.44 49.3301 125.319 50.4199C125.239 51.3483 125.198 52.3171 125.198 53.3262C125.198 54.3353 125.36 55.1426 125.683 55.748C124.835 55.9902 124.088 56.1921 123.442 56.3535C122.837 56.515 122.312 56.6361 121.868 56.7168C121.384 56.8379 120.98 56.9388 120.657 57.0195C119.527 57.3021 118.72 57.2617 118.235 56.8984C117.791 56.5755 117.67 55.7682 117.872 54.4766C117.953 53.5885 118.074 52.5794 118.235 51.4492C118.437 50.3594 118.72 49.1081 119.083 47.6953C119.487 46.3229 119.991 44.7891 120.597 43.0938C121.243 41.3581 122.05 39.4408 123.019 37.3418C123.584 36.1309 124.229 34.7988 124.956 33.3457C125.683 31.8522 126.45 30.2578 127.257 28.5625C125.481 28.5625 123.563 28.6836 121.505 28.9258C120.375 29.0872 119.265 29.2689 118.175 29.4707C117.246 29.6725 116.237 29.9147 115.147 30.1973C114.098 30.4395 113.109 30.722 112.181 31.0449C112.06 30.722 111.979 30.3991 111.938 30.0762C111.938 29.7533 111.959 29.4505 111.999 29.168C112.039 28.8854 112.1 28.6029 112.181 28.3203C112.261 28.0378 112.382 27.7552 112.544 27.4727C112.786 26.9883 113.17 26.3828 113.694 25.6562C115.591 25.4141 117.408 25.2324 119.144 25.1113C120.879 24.9902 122.413 24.8893 123.745 24.8086C125.319 24.7279 126.793 24.6875 128.165 24.6875C128.367 24.6471 128.528 24.6471 128.649 24.6875C128.811 24.6875 128.993 24.6875 129.194 24.6875ZM141.425 45.0312C143.201 37.5638 144.614 31.5697 145.663 27.0488C146.753 22.528 147.58 19.0768 148.146 16.6953C148.791 13.8698 149.235 11.9121 149.478 10.8223C149.599 10.0553 149.7 9.30859 149.78 8.58203C149.861 7.9362 149.901 7.27018 149.901 6.58398C149.901 5.89779 149.841 5.27214 149.72 4.70703C150.043 4.50521 150.386 4.34375 150.749 4.22266C151.153 4.10156 151.536 4.00065 151.899 3.91992C152.343 3.79883 152.787 3.69792 153.231 3.61719C153.675 3.53646 154.079 3.49609 154.442 3.49609C154.765 3.49609 155.068 3.53646 155.351 3.61719C155.633 3.65755 155.815 3.77865 155.896 3.98047C156.138 4.18229 156.239 4.58594 156.198 5.19141C156.198 5.79688 156.158 6.42253 156.077 7.06836C155.916 7.83529 155.734 8.66276 155.532 9.55078C155.048 11.2865 154.382 13.7891 153.534 17.0586C152.808 19.8438 151.819 23.638 150.567 28.4414C149.356 33.2448 147.823 39.2995 145.966 46.6055C145.764 46.8073 145.522 46.9486 145.239 47.0293C144.957 47.11 144.694 47.1504 144.452 47.1504C144.17 47.1504 143.867 47.1302 143.544 47.0898C143.261 47.0091 142.979 46.888 142.696 46.7266C142.454 46.5651 142.212 46.3431 141.97 46.0605C141.728 45.8184 141.546 45.4753 141.425 45.0312ZM169.216 10.3379C169.095 10.7819 168.853 11.2259 168.489 11.6699C168.166 12.0736 167.783 12.4167 167.339 12.6992C166.935 12.9414 166.511 13.1029 166.067 13.1836C165.623 13.2643 165.26 13.1836 164.978 12.9414C164.13 12.2956 163.686 11.6094 163.646 10.8828C163.605 10.1159 163.787 9.40951 164.19 8.76367C164.594 8.07747 165.099 7.51237 165.704 7.06836C166.31 6.58398 166.834 6.30143 167.278 6.2207C167.722 6.13997 168.086 6.24089 168.368 6.52344C168.691 6.76562 168.933 7.10872 169.095 7.55273C169.256 7.95638 169.337 8.42057 169.337 8.94531C169.377 9.47005 169.337 9.93424 169.216 10.3379ZM160.86 23.2344C161.062 22.9922 161.446 22.7904 162.011 22.6289C162.576 22.4674 163.161 22.3464 163.767 22.2656C164.372 22.1445 164.917 22.084 165.401 22.084C165.926 22.0436 166.229 22.0436 166.31 22.084C166.35 22.1243 166.249 22.5482 166.007 23.3555C165.765 24.1628 165.462 25.1113 165.099 26.2012C164.735 27.291 164.352 28.4212 163.948 29.5918C163.545 30.722 163.242 31.6504 163.04 32.377C162.838 33.1035 162.596 33.931 162.313 34.8594C162.031 35.7474 161.769 36.6354 161.526 37.5234C161.325 38.3711 161.183 39.1784 161.103 39.9453C161.022 40.7122 161.082 41.2975 161.284 41.7012C161.486 42.1855 161.708 42.5286 161.95 42.7305C162.192 42.8919 162.455 42.9727 162.737 42.9727C163.545 42.9727 164.554 42.5286 165.765 41.6406C167.016 40.7526 168.267 39.7031 169.519 38.4922C170.81 37.2409 172.001 35.9896 173.091 34.7383C174.181 33.4466 174.988 32.4173 175.513 31.6504C175.836 31.2467 176.159 30.9844 176.481 30.8633C176.845 30.7422 177.127 30.7624 177.329 30.9238C177.571 31.0853 177.692 31.3477 177.692 31.7109C177.733 32.0742 177.612 32.498 177.329 32.9824C176.683 34.1126 175.735 35.4648 174.483 37.0391C173.232 38.5729 171.9 40.0664 170.487 41.5195C169.075 42.9323 167.682 44.1432 166.31 45.1523C164.978 46.1615 163.888 46.6862 163.04 46.7266C162.354 46.7669 161.668 46.6458 160.981 46.3633C160.336 46.1211 159.73 45.778 159.165 45.334C158.64 44.8496 158.196 44.3047 157.833 43.6992C157.47 43.0534 157.268 42.3874 157.228 41.7012C157.106 40.6921 157.106 39.3197 157.228 37.584C157.349 35.8079 157.571 34.0117 157.894 32.1953C158.216 30.3385 158.62 28.5827 159.104 26.9277C159.629 25.2728 160.215 24.0417 160.86 23.2344ZM183.202 43.9414C184.453 43.9414 185.826 43.457 187.319 42.4883C188.853 41.4792 190.326 40.3086 191.739 38.9766C193.192 37.6445 194.504 36.2923 195.675 34.9199C196.886 33.5072 197.794 32.377 198.399 31.5293C198.763 31.0046 199.106 30.7018 199.429 30.6211C199.752 30.5 199.994 30.5404 200.155 30.7422C200.317 30.944 200.377 31.2669 200.337 31.7109C200.297 32.1146 200.115 32.5788 199.792 33.1035C199.509 33.5879 199.025 34.2943 198.339 35.2227C197.693 36.1107 196.906 37.0996 195.978 38.1895C195.09 39.2389 194.06 40.3288 192.89 41.459C191.759 42.5488 190.569 43.5579 189.317 44.4863C188.066 45.3743 186.774 46.1009 185.442 46.666C184.11 47.2715 182.799 47.5742 181.507 47.5742C179.731 47.5742 178.237 47.2311 177.026 46.5449C175.856 45.8991 174.907 45.0514 174.181 44.002C173.494 42.9525 173.01 41.8021 172.728 40.5508C172.445 39.2591 172.304 37.9876 172.304 36.7363C172.304 35.485 172.586 33.931 173.151 32.0742C173.716 30.2174 174.544 28.4414 175.634 26.7461C176.764 25.0104 178.177 23.5371 179.872 22.3262C181.567 21.0749 183.565 20.4492 185.866 20.4492C187.158 20.4492 188.248 20.8932 189.136 21.7812C190.064 22.6693 190.508 23.8802 190.468 25.4141C190.468 26.1406 190.347 26.8672 190.104 27.5938C189.862 28.2799 189.539 28.9056 189.136 29.4707C188.732 29.9954 188.248 30.4193 187.683 30.7422C187.158 31.0651 186.573 31.2266 185.927 31.2266C185.402 31.2266 184.998 31.0449 184.716 30.6816C184.474 30.278 184.312 29.834 184.231 29.3496C184.191 28.8249 184.191 28.3203 184.231 27.8359C184.312 27.3516 184.393 27.0286 184.474 26.8672C184.675 26.5846 184.897 26.3828 185.14 26.2617C185.382 26.1406 185.664 25.9993 185.987 25.8379C186.229 25.7168 186.411 25.5352 186.532 25.293C186.694 25.0508 186.774 24.7884 186.774 24.5059C186.774 24.2233 186.694 23.9811 186.532 23.7793C186.371 23.5775 186.108 23.4766 185.745 23.4766C185.382 23.4766 184.716 23.7793 183.747 24.3848C182.819 24.9499 181.85 25.8177 180.841 26.9883C179.872 28.1185 179.004 29.5514 178.237 31.2871C177.47 33.0228 177.067 35.041 177.026 37.3418C176.986 38.6738 177.168 39.7637 177.571 40.6113C177.975 41.459 178.479 42.125 179.085 42.6094C179.69 43.0938 180.356 43.4368 181.083 43.6387C181.81 43.8405 182.516 43.9414 183.202 43.9414ZM226.493 33.9512C225.565 35.485 224.495 37.0794 223.284 38.7344C222.114 40.349 220.862 41.8424 219.53 43.2148C218.198 44.5469 216.826 45.6569 215.413 46.5449C214 47.4329 212.588 47.877 211.175 47.877C209.762 47.877 208.733 47.3926 208.087 46.4238C207.481 45.4954 207.199 44.446 207.239 43.2754C207.239 42.7507 207.28 42.2865 207.36 41.8828C207.481 41.4792 207.603 41.1159 207.724 40.793C207.845 40.4701 207.966 40.1471 208.087 39.8242C208.248 39.4609 208.39 39.0573 208.511 38.6133C208.672 38.0885 208.672 37.6243 208.511 37.2207C208.39 36.7767 208.228 36.3932 208.026 36.0703C207.663 36.474 207.239 36.8372 206.755 37.1602C206.311 37.4427 205.746 37.584 205.06 37.584C204.575 37.584 204.131 37.362 203.728 36.918C203.324 36.4336 203.122 35.8483 203.122 35.1621C203.122 34.597 203.243 34.1328 203.485 33.7695C203.768 33.4062 204.071 33.1237 204.394 32.9219C204.757 32.7201 205.12 32.5788 205.483 32.498C205.847 32.4173 206.149 32.377 206.392 32.377C206.513 32.377 206.755 32.3971 207.118 32.4375C207.522 32.4779 207.946 32.5384 208.39 32.6191C209.843 31.4486 210.872 30.3991 211.478 29.4707C212.123 28.502 212.184 27.6341 211.659 26.8672C211.336 26.3424 210.933 26.0801 210.448 26.0801C209.964 26.0397 209.459 26.1608 208.935 26.4434C208.41 26.6855 207.885 27.0085 207.36 27.4121C206.876 27.8158 206.432 28.1992 206.028 28.5625C205.221 29.3698 204.313 30.3385 203.304 31.4688C202.335 32.5586 201.528 33.4668 200.882 34.1934C200.599 35.4043 200.317 36.6758 200.034 38.0078C199.792 39.1784 199.509 40.5104 199.187 42.0039C198.904 43.457 198.601 44.9707 198.278 46.5449C198.036 46.666 197.774 46.7467 197.491 46.7871C197.249 46.8678 197.027 46.9284 196.825 46.9688C196.583 47.0091 196.341 47.0293 196.099 47.0293C195.776 47.0293 195.473 47.0091 195.19 46.9688C194.908 46.9688 194.686 46.8678 194.524 46.666C194.323 46.5046 194.222 46.222 194.222 45.8184C194.181 45.4147 194.282 44.8496 194.524 44.123C194.847 43.0736 195.251 41.681 195.735 39.9453C196.22 38.1693 196.724 36.2318 197.249 34.1328C197.774 32.0339 198.299 29.8542 198.823 27.5938C199.388 25.293 199.913 23.1133 200.397 21.0547C200.882 18.9557 201.285 17.0788 201.608 15.4238C201.972 13.7285 202.234 12.3965 202.396 11.4277C202.517 10.3783 202.638 9.36914 202.759 8.40039C202.84 7.5931 202.88 6.80599 202.88 6.03906C202.92 5.23177 202.88 4.6263 202.759 4.22266C202.961 4.02083 203.243 3.83919 203.606 3.67773C203.97 3.51628 204.373 3.39518 204.817 3.31445C205.261 3.19336 205.786 3.09245 206.392 3.01172C207.078 2.93099 207.643 2.91081 208.087 2.95117C208.571 2.99154 208.914 3.19336 209.116 3.55664C209.358 3.96029 209.399 4.64648 209.237 5.61523C209.116 6.54362 208.834 7.85547 208.39 9.55078C207.825 11.7305 207.239 13.7285 206.634 15.5449C206.069 17.321 205.504 18.9961 204.938 20.5703C204.414 22.1445 203.889 23.6784 203.364 25.1719C202.88 26.625 202.436 28.1185 202.032 29.6523C202.84 28.4818 203.849 27.2507 205.06 25.959C206.271 24.627 207.643 23.5371 209.177 22.6895C210.791 21.8418 212.123 21.418 213.173 21.418C214.465 21.418 215.393 21.862 215.958 22.75C216.523 23.5977 216.785 24.6068 216.745 25.7773C216.705 26.7057 216.463 27.5736 216.019 28.3809C215.615 29.1478 215.11 29.8743 214.505 30.5605C213.899 31.2064 213.254 31.7715 212.567 32.2559C211.881 32.7402 211.296 33.1439 210.812 33.4668C211.377 33.7897 211.861 34.2337 212.265 34.7988C212.709 35.3236 212.91 35.9896 212.87 36.7969C212.83 37.8867 212.608 38.8555 212.204 39.7031C211.841 40.5104 211.659 41.2572 211.659 41.9434C211.7 42.4681 211.8 42.8516 211.962 43.0938C212.164 43.3359 212.567 43.457 213.173 43.457C214.263 43.457 215.393 42.9928 216.563 42.0645C217.774 41.1361 218.905 40.0664 219.954 38.8555C221.004 37.6445 221.972 36.4538 222.86 35.2832C223.748 34.0723 224.435 33.1842 224.919 32.6191C225.605 31.8926 226.17 31.7109 226.614 32.0742C227.099 32.3971 227.058 33.0228 226.493 33.9512Z" fill="#C4502B"/>
</g>
<defs>
<filter id="filter0_d_2_132" x="0.0478516" y="0.226562" width="235.293" height="65.5801" filterUnits="userSpaceOnUse" color-interpolation-filters="sRGB">
<feFlood flood-opacity="0" result="BackgroundImageFix"/>
<feColorMatrix in="SourceAlpha" type="matrix" values="0 0 0 0 0 0 0 0 0 0 0 0 0 0 0 0 0 0 127 0" result="hardAlpha"/>
<feOffset dx="4" dy="4"/>
<feGaussianBlur stdDeviation="2"/>
<feComposite in2="hardAlpha" operator="out"/>
<feColorMatrix type="matrix" values="0 0 0 0 0.768627 0 0 0 0 0.313726 0 0 0 0 0.168627 0 0 0 0.25 0"/>
<feBlend mode="normal" in2="BackgroundImageFix" result="effect1_dropShadow_2_132"/>
<feBlend mode="normal" in="SourceGraphic" in2="effect1_dropShadow_2_132" result="shape"/>
</filter>
</defs>
</svg>
