<svg width="64" height="64" viewBox="0 0 64 64" fill="none" xmlns="http://www.w3.org/2000/svg">
<g clip-path="url(#clip0_2_2)">
<path d="M60.8773 24.4587L50.5333 14.1147C50.0304 13.6289 49.3568 13.3601 48.6576 13.3662C47.9584 13.3723 47.2896 13.6527 46.7951 14.1471C46.3007 14.6416 46.0203 15.3104 46.0142 16.0096C46.0081 16.7088 46.2769 17.3824 46.7627 17.8853L57.1067 28.2293C57.414 28.5427 57.6826 28.8919 57.9067 29.2693C57.8667 29.2693 57.8347 29.248 57.7947 29.248L15.9707 29.3333C15.2634 29.3333 14.5851 29.6143 14.085 30.1144C13.5849 30.6145 13.304 31.2927 13.304 32C13.304 32.7072 13.5849 33.3855 14.085 33.8856C14.5851 34.3857 15.2634 34.6667 15.9707 34.6667L57.7787 34.5813C57.8533 34.5813 57.9147 34.544 57.9867 34.5387C57.7501 34.9897 57.4502 35.4046 57.096 35.7707L46.752 46.1147C46.4973 46.3606 46.2941 46.6549 46.1544 46.9802C46.0146 47.3056 45.9411 47.6555 45.938 48.0096C45.9349 48.3637 46.0024 48.7148 46.1365 49.0425C46.2705 49.3703 46.4686 49.668 46.7189 49.9184C46.9693 50.1688 47.267 50.3668 47.5948 50.5008C47.9225 50.6349 48.2736 50.7024 48.6277 50.6993C48.9818 50.6962 49.3317 50.6227 49.6571 50.4829C49.9824 50.3432 50.2767 50.14 50.5227 49.8853L60.8667 39.5413C62.8663 37.541 63.9897 34.8284 63.9897 32C63.9897 29.1716 62.8663 26.4589 60.8667 24.4587H60.8773Z" fill="#F5E8C2"/>
<path d="M18.6667 58.6667H13.3333C11.2116 58.6667 9.17677 57.8238 7.67648 56.3235C6.17619 54.8232 5.33333 52.7884 5.33333 50.6667V13.3333C5.33333 11.2116 6.17619 9.17677 7.67648 7.67648C9.17677 6.17619 11.2116 5.33333 13.3333 5.33333H18.6667C19.3739 5.33333 20.0522 5.05238 20.5523 4.55229C21.0524 4.05219 21.3333 3.37391 21.3333 2.66667C21.3333 1.95942 21.0524 1.28115 20.5523 0.781049C20.0522 0.280952 19.3739 0 18.6667 0L13.3333 0C9.79841 0.00423429 6.40949 1.41035 3.90992 3.90992C1.41035 6.40949 0.00423429 9.79841 0 13.3333L0 50.6667C0.00423429 54.2016 1.41035 57.5905 3.90992 60.0901C6.40949 62.5897 9.79841 63.9958 13.3333 64H18.6667C19.3739 64 20.0522 63.7191 20.5523 63.219C21.0524 62.7189 21.3333 62.0406 21.3333 61.3333C21.3333 60.6261 21.0524 59.9478 20.5523 59.4477C20.0522 58.9476 19.3739 58.6667 18.6667 58.6667Z" fill="#C4502B"/>
</g>
<defs>
<clipPath id="clip0_2_2">
<rect width="64" height="64" fill="white"/>
</clipPath>
</defs>
</svg>
