<svg width="64" height="64" viewBox="0 0 64 64" fill="none" xmlns="http://www.w3.org/2000/svg">
  <g clip-path="url(#clip0_138_75)">
    <path d="M63.2521 59.4845L47.3478 43.5802C51.6819 38.2795 53.8128 31.5157 53.2998 24.6879C52.7868 17.8601 49.6691 11.4907 44.5916 6.89708C39.5141 2.30349 32.8653 -0.162797 26.0204 0.00834672C19.1754 0.179491 12.6582 2.97497 7.81657 7.81657C2.97497 12.6582 0.179491 19.1754 0.00834672 26.0204C-0.162797 32.8653 2.30349 39.5141 6.89708 44.5916C11.4907 49.6691 17.8601 52.7868 24.6879 53.2998C31.5157 53.8128 38.2795 51.6819 43.5802 47.3478L59.4845 63.2521C59.987 63.7374 60.6601 64.006 61.3587 63.9999C62.0573 63.9938 62.7256 63.7136 63.2196 63.2196C63.7136 62.7256 63.9938 62.0573 63.9999 61.3587C64.006 60.6601 63.7374 59.987 63.2521 59.4845ZM26.7301 48.0459C22.5142 48.0459 18.393 46.7957 14.8876 44.4535C11.3823 42.1113 8.65015 38.7822 7.03681 34.8873C5.42347 30.9923 5.00134 26.7064 5.82382 22.5715C6.64629 18.4367 8.67643 14.6386 11.6575 11.6575C14.6386 8.67643 18.4367 6.64629 22.5715 5.82382C26.7064 5.00134 30.9923 5.42347 34.8873 7.03681C38.7822 8.65015 42.1113 11.3823 44.4535 14.8876C46.7957 18.393 48.0459 22.5142 48.0459 26.7301C48.0395 32.3814 45.7917 37.7995 41.7956 41.7956C37.7995 45.7917 32.3814 48.0395 26.7301 48.0459Z" fill="#C4502B"/>
  </g>
  <defs>
    <clipPath id="clip0_138_75">
      <rect width="64" height="64" fill="white"/>
    </clipPath>
  </defs>
</svg>